<svg width="139" height="59" viewBox="0 0 139 59" version="1.1" xmlns="http://www.w3.org/2000/svg" xmlns:xlink="http://www.w3.org/1999/xlink">
<title>Logo</title>
<desc>Created using Figma</desc>
<g id="Canvas" transform="translate(-300 672)">
<g id="Logo">
<g id="Group">
<g id="Vector">
<use xlink:href="#path0_fill" transform="translate(300 -672)" fill="#AD1F39"/>
</g>
</g>
<g id="Group">
<g id="Group">
<g id="Vector">
<use xlink:href="#path1_fill" transform="translate(369.068 -630.433)" fill="#FFFFFF"/>
</g>
</g>
<g id="Vector">
<use xlink:href="#path2_fill" transform="translate(369.068 -668.821)" fill="#FFFFFF"/>
</g>
<g id="Vector">
<use xlink:href="#path3_fill" transform="translate(385.458 -668.821)" fill="#FFFFFF"/>
</g>
<g id="Vector">
<use xlink:href="#path4_fill" transform="translate(401.849 -668.821)" fill="#FFFFFF"/>
</g>
<g id="Vector">
<use xlink:href="#path5_fill" transform="translate(426.453 -668.821)" fill="#FFFFFF"/>
</g>
<g id="Group">
<g id="Vector">
<use xlink:href="#path6_fill" transform="translate(368.926 -625.432)" fill="#FFFFFF"/>
</g>
<g id="Vector">
<use xlink:href="#path7_fill" transform="translate(384.715 -625.362)" fill="#FFFFFF"/>
</g>
<g id="Vector">
<use xlink:href="#path8_fill" transform="translate(399.796 -625.467)" fill="#FFFFFF"/>
</g>
<g id="Vector">
<use xlink:href="#path9_fill" transform="translate(415.337 -625.362)" fill="#FFFFFF"/>
</g>
<g id="Vector">
<use xlink:href="#path10_fill" transform="translate(431.374 -625.397)" fill="#FFFFFF"/>
</g>
</g>
</g>
</g>
</g>
<defs>
<path id="path0_fill" d="M 53.3496 22.4788C 53.5266 22.9014 53.6682 23.3945 53.8452 23.7114C 53.7744 23.4649 53.7036 23.2184 53.6328 22.9718C 53.5974 22.7957 53.4912 22.5844 53.3496 22.4788ZM 52.6415 20.2953C 52.3583 20.4713 52.8893 21.1053 53.0309 21.2461C 52.8893 20.9292 52.7831 20.577 52.6415 20.2953ZM 48.1456 14.3786C 48.0394 14.273 47.9686 14.2377 47.8978 14.2377C 47.2606 13.6038 47.9332 14.5899 48.1456 14.3786ZM 61.775 30.4381C 61.7042 29.8394 61.6688 29.2407 61.5626 28.7476C 61.4918 26.881 61.244 25.2962 60.89 23.7466C 60.536 22.197 60.0758 20.7531 59.4386 19.1683C 59.3678 18.6752 59.1199 19.2387 59.0491 18.7457C 58.9075 18.1469 58.5181 17.4074 58.0933 16.5973C 57.6331 15.8225 57.1729 15.0125 56.8189 14.3434C 56.3233 13.5686 55.7214 12.829 55.1904 12.0542C 54.5886 11.3146 54.0576 10.575 53.385 9.87068C 52.1105 8.46195 50.6591 7.08845 48.8536 6.0319C 48.712 5.89103 48.535 5.75016 48.3226 5.60928C 48.1102 5.46841 47.8978 5.36276 47.7208 5.2571C 47.296 5.01058 46.9065 4.83449 46.6233 4.58796C 46.3755 4.58796 45.9507 4.20056 45.4197 4.05969C 45.2427 3.88359 44.7471 3.77794 44.6409 3.4962C 48.1102 4.94014 51.2963 7.12366 53.8452 10.0468C 54.0222 9.83546 53.4558 9.44806 53.3142 9.27197C 53.1017 8.99023 52.8185 8.70848 52.5707 8.49717C 51.8273 7.75759 51.0485 7.15888 50.3405 6.59539C 49.9865 6.31365 49.597 6.06712 49.2076 5.82059C 48.8536 5.57407 48.4642 5.29232 48.0748 5.08101C 45.3489 3.39054 42.092 2.22834 38.9413 1.45354C 38.7643 1.41832 38.5519 1.38311 38.3749 1.34789C 38.1979 1.31267 37.9855 1.27745 37.8084 1.24223C 37.419 1.1718 37.065 1.10136 36.6756 1.03092C 35.9322 0.890052 35.2242 0.890052 34.8347 0.713961C 35.826 0.573089 36.711 0.643525 37.6314 0.74918C 37.8438 0.784398 38.0917 0.819616 38.3395 0.819616C 38.5873 0.854834 38.8351 0.92527 39.0829 0.960489C 39.6139 1.06614 40.1449 1.13658 40.7821 1.24223C 40.1449 1.10136 39.5077 0.890052 38.8351 0.713961C 38.5165 0.608307 38.1625 0.537871 37.8084 0.467434C 37.4544 0.396998 37.1004 0.326562 36.7464 0.256125C 35.8968 0.115253 35.0118 0.150471 34.1621 0.115253C 33.2063 0.0448166 32.2505 0.0448166 31.2946 0.00959844C 30.3388 -0.0256197 29.4184 0.0448166 28.4979 0.0800347C 28.2501 0.0800347 28.0377 0.115253 27.8253 0.115253L 27.6129 0.115253L 27.4359 0.115253L 27.3651 0.115253L 27.0465 0.150471C 26.6217 0.220907 26.2323 0.256125 25.8429 0.326562C 25.6304 0.36178 25.4534 0.396998 25.241 0.432216C 25.0286 0.573089 24.8162 0.643525 24.5684 0.713961C 24.1082 0.854834 23.6834 0.995707 23.294 1.13658C 22.7983 1.1718 22.3381 1.31267 21.8425 1.38311C 21.3469 1.48876 20.8513 1.59442 20.4265 1.77051C 19.8247 2.01703 18.975 2.29878 18.2316 2.61574C 17.4882 2.96792 16.7448 3.35532 16.3553 3.63707C 16.2491 3.7075 16.1783 3.67229 16.0721 3.7075C 15.2225 4.23578 14.3375 4.76405 13.5232 5.43319L 12.9214 5.89103C 12.709 6.0319 12.4966 6.20799 12.3196 6.38408C 11.9302 6.73627 11.5408 7.05323 11.1514 7.37019C 10.762 7.65194 10.4079 8.03934 10.0185 8.42674C 9.62912 8.81414 9.2043 9.20154 8.85029 9.65937C 8.49628 10.1172 8.10687 10.5398 7.78826 10.9624C 7.46965 11.3851 7.22184 11.8429 6.97403 12.2303C 6.69082 12.4064 6.40761 12.829 6.1598 13.146C 6.0182 13.2868 5.9474 13.5686 5.80579 13.7095C 5.80579 13.7095 5.62879 13.7447 5.59338 13.7447C 5.52258 13.7799 5.45178 13.9208 5.38098 13.956C 4.81456 14.9421 4.28354 16.0339 3.71712 17.1256C 3.43391 17.6891 3.50472 18.1822 3.22151 18.7809C 3.0799 19.0626 2.9737 19.3444 2.83209 19.6613L 2.51348 20.5418C 2.30108 21.1405 1.77006 21.7744 1.59305 22.3731C 1.41605 22.9718 1.52225 23.5001 1.38065 24.0988L 1.27444 24.5566L 1.09744 24.7327L 1.09744 24.8032L 1.06203 24.9793L 1.02663 25.0849C 0.991233 25.3667 0.92043 25.6132 0.885029 25.8949C 0.849628 26.0358 0.849628 26.1415 0.814227 26.2823C 0.778826 26.4232 0.778826 26.5993 0.743424 26.7754C 0.708023 27.0924 0.672622 27.4445 0.637221 27.7615C 0.495616 28.0785 0.460215 28.5363 0.389413 29.0294C 0.354012 29.5928 0.106203 30.2972 0.0708023 30.9311C 0.0708023 31.5651 0.106203 32.1638 0.0708023 32.5512C 0.0708023 32.692 0.177006 32.7273 0.177006 32.8329C 0.354012 34.8756 0.955831 36.7773 1.62845 38.8552C 1.69926 39.0665 1.77006 39.3131 1.84086 39.5244C 1.48685 39.0313 1.16824 38.5383 0.885029 38.01C 0.778826 37.7987 0.672622 37.6226 0.531017 37.4113C 0.424814 37.2 0.247808 36.6717 -5.27518e-10 36.073C 0.106203 36.7421 0.354012 37.693 0.495616 38.01C 0.637221 38.3269 0.778826 38.6439 0.92043 38.9609C 1.27444 39.7005 2.69049 42.3066 3.1153 42.9757L 2.9029 42.1305C 3.32771 43.0462 3.82333 43.9266 4.35434 44.7719C 5.31017 46.251 6.37221 47.5189 7.50505 48.7163C 7.71745 48.998 8.07147 49.315 8.35468 49.632C 8.63788 49.9489 9.1335 50.4772 9.27511 50.6181C 9.38131 50.7237 9.45211 50.6885 9.55831 50.759C 9.80612 50.9703 9.66452 51.1816 9.87693 51.3929C 10.1247 51.569 10.7974 51.7803 11.0452 51.9564C 11.5054 52.3438 12.0364 52.6607 12.4966 52.9777C 12.9568 53.3299 13.063 53.5764 13.594 53.8934C 14.1251 54.1751 14.6915 54.4216 15.2579 54.7034C 15.6473 54.8443 16.0367 54.9499 16.1075 54.9499C 16.1783 54.9851 16.3553 55.1612 16.6385 55.2317C 16.8156 55.2669 17.1342 55.4077 17.3466 55.4782C 18.4086 55.8304 19.683 56.0769 21.0991 56.2882C 21.2053 56.2882 21.4531 56.3234 21.5239 56.3586C 21.6655 56.3939 21.4885 56.253 21.4885 56.1825C 21.4885 56.1121 21.9487 56.3939 21.9841 56.4291C 22.7629 56.4995 23.6126 56.57 24.4622 56.57C 24.7454 56.57 24.1436 56.0769 24.3914 56.0769C 24.6746 56.0769 25.8074 56.5347 26.0907 56.4995C 26.6217 56.4643 27.1173 56.4291 27.6483 56.3234C 27.8253 56.2882 28.0023 56.3234 28.2147 56.3234C 28.4979 56.2882 28.7811 56.1473 29.0644 56.1121C 29.5246 56.0417 30.0202 55.9712 30.4804 55.9008C 30.5866 55.8656 30.7282 55.8656 30.8344 55.8304L 30.9052 55.8304L 31.1884 55.6543C 31.2238 55.6543 31.2946 55.6191 31.33 55.6191C 31.4362 55.5838 31.507 55.5486 31.5778 55.5134C 31.684 55.4782 31.8256 55.4077 31.9319 55.3725C 32.1089 55.2669 32.2859 55.3021 32.3213 55.3021C 32.4629 55.2317 32.5691 55.1964 32.7461 55.126C 32.8169 55.0908 32.8523 55.0908 32.9231 55.0556C 34.5161 54.7386 36.003 54.316 37.3128 53.8229C 37.596 53.7173 37.5606 53.5764 37.8084 53.4355C 43.154 50.8998 46.1631 47.695 48.3226 44.2084C 48.358 44.1379 48.712 44.1027 48.7474 44.0323C 51.8627 37.2 50.0572 30.1211 45.2781 28.325C 45.1011 28.2546 44.4993 27.8672 44.2869 27.8319C 42.8708 27.4093 40.8529 27.198 38.7289 26.881C 38.6935 26.881 38.6227 26.7402 38.5873 26.7402C 37.065 26.5289 35.472 26.2823 34.0205 26.0358C 33.9143 26.0006 33.8081 25.9302 33.7019 25.9302C 29.7724 25.2258 26.9757 24.2397 29.1352 22.3027C 30.9052 20.6827 32.4275 19.6613 33.7727 18.9922C 34.941 18.5343 35.8968 18.1469 36.7818 17.8652C 36.8526 17.83 36.9234 17.83 36.9942 17.7948C 37.4898 17.6187 37.9855 17.4426 38.4457 17.3017C 39.3661 17.02 40.2865 16.7734 41.2424 16.6678C 41.3486 16.6678 42.446 16.6678 42.5522 16.5269C 42.6584 16.386 41.9858 15.4704 41.6672 15.3295C 40.1449 14.6956 40.0741 14.4843 38.5165 13.9912C 37.4544 13.639 36.4278 13.4982 35.4012 13.5334C 33.2417 13.5334 30.268 14.1673 26.2323 16.2099C 26.0553 16.3156 25.8783 16.386 25.7012 16.4917C 25.6304 16.5269 25.595 16.7734 25.5242 16.8087C 25.3826 16.8791 25.2056 16.7382 25.0994 16.8087C 25.0286 16.8439 24.9578 16.8791 24.887 16.9143C 24.8162 16.9143 24.8162 16.9847 24.7454 17.02C 24.71 17.02 24.6038 17.0552 24.5684 17.0552C 23.5772 17.6187 22.6921 18.1822 21.9133 18.7104C 21.8425 18.7457 21.8779 18.8865 21.8071 18.957C 21.1699 19.4148 20.6389 19.8726 20.1433 20.2953C 20.1079 20.3305 20.0017 20.3657 19.9663 20.4009C 19.1874 21.1405 19.4706 21.0348 19.0812 21.7392C 19.0458 21.8096 19.0812 21.8449 19.0458 21.9153C 18.7272 22.4788 18.5502 23.0071 18.444 23.5353C 18.444 23.5705 18.4086 23.5001 18.4086 23.5353C 18.3732 23.7466 18.3378 23.9227 18.3378 24.0988C 18.1962 24.9088 17.9838 26.5289 18.444 27.9024C 18.5148 28.0785 18.3024 26.8458 18.444 26.0358C 18.444 26.0006 18.444 25.9654 18.444 25.9654C 18.5856 26.6345 18.798 27.2684 19.0458 27.9024C 19.2582 28.3954 20.0017 28.9941 20.5327 29.3463C 21.0991 29.7689 21.9133 30.1916 22.6213 30.4381C 22.7629 30.4733 22.5859 30.2972 22.2673 30.0155C 22.5859 30.0859 22.94 30.1916 23.294 30.262C 23.3648 30.262 23.5064 30.262 23.5772 30.2972C 23.6834 30.3324 23.7896 30.2972 23.8958 30.3324C 23.9666 30.3324 24.002 30.4029 24.0728 30.4029C 24.6038 30.4733 25.1348 30.9311 25.7012 31.0016C 25.9137 31.0368 26.1615 31.0368 26.3739 31.072C 26.4801 31.072 27.6483 31.4594 27.7545 31.4594C 30.6928 31.7059 32.3213 32.5159 34.0913 32.9738C 35.8968 33.4316 35.5782 33.5021 36.6402 33.7134C 36.7818 33.7486 36.8172 33.819 36.888 33.8542C 36.9942 33.9247 37.242 33.9599 37.3482 33.9951C 39.1891 34.8756 38.5165 38.1861 38.4811 38.2565C 38.3395 38.5735 38.2687 38.6791 38.1625 38.82C 38.1271 38.8904 38.1979 39.3131 38.1625 39.3835C 38.1271 39.4539 37.9855 39.3835 37.95 39.4539C 37.242 40.44 37.0296 41.1092 35.7552 42.0953C 35.6136 42.2009 35.6844 42.2362 35.5074 42.3418C 35.4366 42.4123 35.0472 42.4475 34.9409 42.5179C 34.7993 42.5883 34.7285 42.7644 34.5869 42.8701C 34.4807 42.9405 34.1621 43.2575 33.7727 43.4688C 33.6665 43.5392 33.1355 43.821 33.0293 43.8562C 32.9585 43.8914 32.8169 44.1732 32.5691 44.0675C 32.3921 43.9971 32.2151 44.2436 32.0381 44.314C 29.9494 45.2649 27.2943 46.0045 24.4622 46.0397C 24.4622 46.0397 24.4268 46.0397 24.4268 46.0749C 23.9312 46.3919 22.6921 46.6736 22.3735 46.568C 22.0549 46.4976 18.9396 47.3076 22.3381 46.3567C 22.6567 46.2863 22.94 46.1454 23.2586 46.0045C 22.9754 46.0045 22.7275 45.9693 22.4443 45.9341C 22.0549 45.9693 21.7009 45.9693 21.5593 45.8988C 21.2761 45.7932 18.2316 46.2158 21.2407 45.7228C 17.9838 45.0888 14.6207 43.2927 11.647 39.6652C 10.939 38.3622 10.4433 37.0239 10.1247 35.756C 9.73532 34.2769 9.73532 32.9034 9.55831 31.5651C 9.55831 31.3538 9.31051 31.072 9.31051 30.8607C 9.31051 30.6494 9.45211 30.1563 9.45211 29.9098C 9.41671 29.2054 9.38131 29.2054 9.38131 28.9237C 9.38131 28.7124 9.41671 28.5715 9.41671 28.3954L 9.45211 28.1489C 9.45211 28.1137 9.45211 28.0785 9.45211 28.008L 9.48751 27.7967L 9.62912 26.881L 9.73532 26.6697L 9.84152 26.2823L 10.0539 25.0145C 10.1601 24.5566 10.3017 24.0988 10.4433 23.641C 10.6912 22.7253 11.0452 21.8449 11.3992 20.9644C 11.47 20.6474 11.7178 20.3305 11.7178 20.0135C 12.1072 19.2387 12.4966 18.4991 12.9214 17.7948C 12.9568 17.7243 12.886 17.6187 12.9214 17.5482C 12.9568 17.4778 13.1338 17.4426 13.1692 17.3721C 13.7357 16.4565 14.3021 15.6112 14.9393 14.8717C 16.1075 13.4629 17.4174 12.336 18.8334 11.5259L 19.506 11.1385L 19.8601 10.9272C 19.9663 10.892 20.0725 10.7864 19.8955 10.8216C 19.329 11.1385 18.6564 11.5964 18.2316 11.6668C 18.5148 11.3146 18.9042 11.0329 19.3998 10.7864C 19.506 10.6103 19.2582 10.3637 19.5414 10.1876C 19.7184 10.082 19.9309 10.0116 20.1079 9.9059C 20.2849 9.80024 20.4619 9.72981 20.6389 9.62415L 21.1699 9.34241C 21.3469 9.23675 21.5239 9.16632 21.7363 9.06066C 22.1257 8.88457 22.4797 8.67326 22.9046 8.53239C 23.3294 8.39152 23.7896 8.25065 24.2852 8.10977C 24.4976 8.00412 24.6746 7.93368 24.887 7.82803C 25.0994 7.75759 25.2764 7.65194 25.4888 7.5815C 25.7012 7.51106 25.9137 7.40541 26.1261 7.33497C 26.3739 7.26454 26.6571 7.1941 26.9049 7.12366C 27.2943 7.08845 27.6837 7.05323 28.0731 6.98279L 28.2147 6.94757C 28.1793 6.94757 28.1439 6.94757 28.1085 6.94757L 28.1439 6.94757L 28.2147 6.94757L 28.4625 6.91236C 28.6395 6.87714 28.8165 6.87714 28.9936 6.84192C 29.6662 6.73627 30.3034 6.59539 30.8698 6.63061C 31.2592 6.70105 31.0114 6.38408 31.33 6.4193C 31.4716 6.34887 31.7548 6.34887 31.8965 6.27843C 32.3213 6.27843 32.7461 6.24321 33.1355 6.24321C 33.5249 6.24321 33.9143 6.27843 34.3037 6.27843C 34.6931 6.27843 35.0826 6.27843 35.4366 6.34887C 35.7906 6.38408 36.18 6.4193 36.534 6.45452C 37.2774 6.52496 37.9855 6.66583 38.6935 6.8067C 38.8705 6.84192 39.0475 6.87714 39.2599 6.91236C 39.4369 6.94757 39.6139 7.01801 39.7909 7.05323C 40.1449 7.15888 40.5343 7.26454 40.9237 7.37019C 41.3486 7.47585 41.7026 7.68716 42.0212 7.89846C 42.3398 8.10977 42.6938 8.28586 43.0832 8.56761C 43.4372 8.77892 43.7912 8.95501 44.1453 9.1311L 45.2073 9.72981C 45.3843 9.83546 45.5613 9.9059 45.7383 10.0116L 46.2339 10.3285L 46.7649 10.6455C 46.9419 10.7511 47.1189 10.8568 47.2606 10.9977C 47.5792 11.2442 47.9332 11.4907 48.2518 11.702C 48.5704 11.9838 48.889 12.2303 49.2076 12.512C 49.3846 12.6529 49.5262 12.7938 49.6678 12.9347C 49.8094 13.0755 49.951 13.2516 50.1281 13.3925C 50.4467 13.7095 50.7299 14.0616 50.9777 14.4138C 51.1547 14.6251 51.3317 14.8364 51.4379 15.0125C 51.5441 15.2238 51.6149 15.3999 51.5795 15.5408C 51.0839 15.1534 50.5175 14.6603 50.0218 14.1673C 49.4554 13.7095 48.9244 13.2516 48.2872 13.1812C 48.5704 13.5334 48.7828 13.7799 49.0306 14.0264C 49.2784 14.273 49.597 14.4843 49.9156 14.8717C 50.1989 15.1182 50.5175 15.3999 50.7653 15.7169C 51.0485 16.0339 51.2963 16.3508 51.5795 16.5973C 52.3229 17.7595 53.0663 18.8513 53.6328 19.9783C 53.8098 20.26 53.916 20.5418 54.0576 20.8235C 54.1638 21.1053 54.3054 21.387 54.4116 21.6688C 54.624 22.2323 54.801 22.7605 54.8718 23.324C 55.0134 23.6058 55.155 23.8171 55.2966 24.0988C 55.4382 24.3806 55.509 24.6623 55.5798 25.0497C 55.686 25.2962 55.9338 24.6975 56.0755 25.1906C 56.04 25.2258 56.1817 26.0006 56.3233 26.1767C 56.4295 26.881 56.5357 27.515 56.6419 28.1489C 56.7127 28.7828 56.8189 29.4168 56.8189 30.1211C 56.8897 30.755 56.9959 32.0933 56.9959 32.7625C 56.9605 33.3964 56.9605 34.0655 56.8897 34.6995L 56.8543 35.1925L 56.7835 35.6856C 56.7127 36.0025 56.6773 36.3195 56.6065 36.6365L 56.5003 37.0943C 56.4649 37.2352 56.4295 37.3761 56.3941 37.5521L 56.1108 38.503C 55.2612 41.0035 53.9514 43.3631 52.4645 45.5114C 52.1105 45.7932 52.7123 45.7228 52.3583 46.0045C 51.9335 46.6032 51.5795 47.3076 51.0485 47.9767C 50.0219 49.2446 48.712 50.4068 47.296 51.6394C 45.0303 53.6116 42.269 55.2669 39.6847 56.5347C 39.9325 56.4291 39.9325 56.5699 39.7201 56.7108C 38.8705 57.1687 38.3749 56.6404 37.3836 56.9573C 37.1004 57.0982 36.8526 57.3095 36.357 57.3447C 36.1092 57.4856 35.8968 57.7674 35.5428 57.6265C 35.4366 57.873 35.0826 57.9787 34.6931 58.0843C 34.3037 58.1195 33.9497 58.1195 33.5603 58.1548C 33.5603 58.5422 34.4099 58.3661 34.8347 58.4365C 35.118 58.2604 35.2596 58.4013 35.5074 58.4365C 35.7552 58.4717 36.2154 58.3309 36.2154 58.5422C 36.0384 58.6126 35.5074 58.5774 35.5782 58.7183C 36.0384 58.6126 35.7906 58.8239 35.472 58.8239C 35.4012 58.5069 35.4012 58.8239 35.1888 58.8591C 35.2242 58.7183 34.6577 58.9296 34.6223 59C 34.9055 59 35.1888 59 35.4366 58.9648C 35.6844 58.9296 35.9322 58.8943 36.18 58.8943C 36.6756 58.8239 37.1712 58.7535 37.6314 58.6126C 38.5873 58.4013 39.6493 58.7887 40.5343 58.4013C 41.4548 58.0491 42.3398 57.6265 43.2602 57.1334C 44.1453 56.6404 45.0657 56.1121 45.9507 55.4782C 46.0569 55.5838 46.3401 55.2669 46.4109 55.443C 46.3401 55.5134 46.1985 55.5838 46.2339 55.6543C 46.3755 55.5486 46.4463 55.6191 46.5879 55.4782C 48.0748 54.7386 49.7032 53.5764 50.8715 52.7312C 51.7919 51.8155 52.8893 50.9703 53.8098 49.9841C 54.1284 49.6672 54.3054 49.315 54.624 48.9628C 54.9426 48.5754 55.2966 48.2585 55.5798 47.9063C 57.4915 45.5114 59.0491 42.9053 59.9342 40.4753C 60.005 40.44 60.0758 40.3344 60.1112 40.2287C 60.1466 40.1583 60.1466 40.1231 60.182 40.0526L 60.2174 39.947L 60.2528 39.8765L 60.2528 39.8413L 60.2528 39.8061C 60.2882 39.5596 60.359 39.3483 60.5714 39.3131C 60.0758 41.567 58.6597 44.2084 57.2791 46.3919C 56.7481 47.2019 56.1463 47.9767 55.8984 48.6459C 56.4295 47.8711 56.7481 47.695 57.3145 46.7441C 58.4119 45.1945 59.297 43.5744 60.005 41.9544C 60.182 41.5318 60.359 41.1444 60.5006 40.7218L 60.7484 40.0174L 60.9254 39.4539L 61.1024 38.8904L 61.2794 38.1861L 61.421 37.4817L 61.5272 36.8478C 61.7396 35.8265 61.8458 34.5586 61.8812 33.2907C 61.952 32.3751 61.8104 31.0368 61.775 30.4381ZM 8.49628 10.575C 8.53168 10.6103 8.42548 10.7511 8.39008 10.8216L 8.14227 11.1385C 7.96526 11.0329 8.39008 10.7511 8.49628 10.575ZM 8.42548 11.4555C 8.07147 11.8429 7.68205 12.1599 7.46965 12.1246C 8.03607 11.3146 8.63788 10.892 9.2397 10.2933C 9.1335 10.6103 8.77949 11.0681 8.42548 11.4555ZM 15.1163 52.3438C 15.1871 52.5199 15.5765 52.7312 15.9305 52.9073C 16.9218 53.4355 18.621 53.7877 18.6918 53.8581C 18.975 54.2103 19.4352 53.999 19.506 54.1047C 19.7893 54.4921 19.6476 54.3512 19.6476 54.3512C 17.4174 54.316 14.5853 52.2381 14.5853 52.2381C 14.4437 51.9916 15.1163 52.3438 15.1163 52.3438ZM 13.8065 51.569C 13.8419 51.6746 13.7357 51.7803 13.3108 51.3577C 12.5674 50.6885 11.8948 50.4772 11.7886 50.1955C 11.7886 50.1955 13.7711 51.4985 13.8065 51.569ZM 44.7471 12.1599C 44.8533 12.1951 44.9595 12.3007 45.0303 12.2655C 44.8533 12.1951 44.6055 11.8781 44.5347 12.019L 44.7471 12.1599ZM 59.4032 18.7809C 59.3324 18.6048 59.2616 18.3583 59.1199 18.4639L 59.2262 18.7104C 59.2616 18.6752 59.3324 18.7809 59.4032 18.7809ZM 55.5444 12.1246C 56.0046 12.7938 56.5003 13.4277 56.8897 14.1321C 57.7393 15.5056 58.4473 16.9143 59.0845 18.2174C 58.3411 16.1747 57.1021 14.0616 55.8276 12.4064C 55.5444 12.019 55.2612 11.5259 54.7302 10.892C 54.6594 10.7864 54.5178 10.6103 54.4116 10.4694C 54.27 10.3285 54.1284 10.2229 54.0222 10.2933C 54.3054 10.575 54.5532 10.892 54.801 11.1738C 55.0488 11.4907 55.332 11.7725 55.5444 12.1246ZM 15.3641 41.7783C 15.7535 42.0953 15.8243 41.884 15.5411 41.8488C 15.1517 41.4966 15.1517 41.6375 15.3641 41.7783ZM 44.1099 11.702C 43.6496 11.4907 43.6496 11.6668 43.8974 11.6668C 44.3931 11.9486 44.3223 11.8077 44.1099 11.702ZM 28.3209 6.87714C 28.3563 6.84192 28.3563 6.84192 28.3209 6.87714L 28.3209 6.87714ZM 16.1075 42.4123C 16.2491 42.4827 16.3553 42.5531 16.4615 42.4827C 16.1783 42.2714 15.9305 42.0953 15.7181 42.0601C 15.8597 42.2009 16.0013 42.3418 16.1075 42.4123ZM 11.9656 38.3622C 12.0364 38.4678 12.1072 38.503 12.178 38.5735C 12.6736 39.3131 12.2134 38.2213 11.9656 38.3622ZM 40.0033 10.1172C 40.2157 10.0116 40.8529 10.3285 40.6051 10.1524C 40.4281 10.0116 40.0033 9.94112 39.6493 9.94112C 39.7909 9.97634 39.9325 10.0468 40.0033 10.1172ZM 34.1975 8.95501L 34.6223 8.99023C 34.7639 8.99023 34.9055 9.02544 34.9409 8.95501C 34.7285 8.95501 34.2683 8.77892 34.1975 8.95501ZM 42.8708 11.209C 43.1894 11.3498 43.4726 11.4907 43.685 11.4555C 43.5434 11.3851 43.3664 11.2794 43.2248 11.209C 43.1186 11.1738 42.977 11.1738 42.8708 11.209ZM 41.738 10.7159C 42.0212 10.8568 42.3398 10.9977 42.5168 10.892C 42.2336 10.7864 41.8442 10.5046 41.738 10.7159ZM 14.5853 41.074C 14.7269 41.1444 14.9039 41.5318 15.0455 41.4261L 14.8331 41.2148C 14.7623 41.1444 14.6561 41.0387 14.5853 41.074Z"/>
<path id="path1_fill" d="M 69.6341 0L 0 0L 0 1.33829L 69.6341 1.33829L 69.6341 0Z"/>
<path id="path2_fill" d="M 9.59372 0L 2.72589 0C 1.23904 0 0.0354033 1.23264 0.0354033 2.67658L 0.0354033 14.1929C 0.0354033 15.2142 0.566417 16.0947 1.38064 16.5525L 7.85906 20.2504C 8.03606 20.3913 8.17767 20.6378 8.17767 20.8844L 8.24847 29.1958C 8.24847 29.5832 7.92986 29.8298 7.54045 29.8298L 4.77916 29.8298C 4.38974 29.8298 4.14194 29.5832 4.14194 29.1958L 4.14194 22.3635L 0 22.3635L 0 31.2385C 0 32.7177 1.20364 33.9151 2.69049 33.9151L 9.55831 33.9151C 11.0452 33.9151 12.2488 32.7177 12.2488 31.2385L 12.2488 19.6869C 12.2488 18.7361 11.7178 17.8204 10.9036 17.3273L 4.42515 13.6294C 4.21274 13.4886 4.10654 13.3125 4.10654 13.0659L 4.10654 4.71923C 4.10654 4.33183 4.35434 4.01487 4.74375 4.01487L 7.50505 4.01487C 7.89446 4.01487 8.21307 4.33183 8.21307 4.71923L 8.21307 11.4811L 12.2488 11.4811L 12.2488 2.67658C 12.2842 1.19742 11.0452 0 9.59372 0Z"/>
<path id="path3_fill" d="M 12.2488 0L 8.21307 0L 8.21307 29.1958C 8.21307 29.5832 7.89446 29.8298 7.50505 29.8298L 4.74376 29.8298C 4.35434 29.8298 4.10653 29.5832 4.10653 29.1958L 4.10653 0L 1.08036e-06 0L 1.08036e-06 31.2737C 1.08036e-06 32.7529 1.23904 33.9503 2.69049 33.9503L 12.2488 33.9503L 12.2488 0Z"/>
<path id="path4_fill" d="M 20.4973 33.9151L 20.4973 2.67658C 20.4973 1.19742 19.2936 -6.256e-16 17.736 -6.256e-16L 2.16072e-06 -6.256e-16L 2.16072e-06 33.9503L 4.10654 33.9503L 4.10654 4.01487L 7.50504 4.01487C 7.89445 4.01487 8.21307 4.33183 8.21307 4.71923L 8.21307 33.9151L 12.2488 33.9151L 12.2488 4.01487L 15.6473 4.01487C 16.0367 4.01487 16.3553 4.33183 16.3553 4.71923L 16.3553 33.9151L 20.4973 33.9151Z"/>
<path id="path5_fill" d="M 9.55832 0L 2.69049 0C 1.20364 0 2.16072e-06 1.23264 2.16072e-06 2.67658L 2.16072e-06 31.2385C 2.16072e-06 32.7177 1.23905 33.9151 2.69049 33.9151L 9.55832 33.9151C 11.0452 33.9151 12.2488 32.7177 12.2488 31.2385L 12.2488 2.67658C 12.2488 1.19742 11.0452 0 9.55832 0ZM 8.21307 29.1958C 8.21307 29.5832 7.89446 29.8298 7.50504 29.8298L 4.74376 29.8298C 4.35434 29.8298 4.10654 29.5832 4.10654 29.1958L 4.10654 4.71923C 4.10654 4.33183 4.35434 4.01487 4.74376 4.01487L 7.50504 4.01487C 7.89446 4.01487 8.21307 4.33183 8.21307 4.71923L 8.21307 29.1958Z"/>
<path id="path6_fill" d="M 7.25724 8.31148C 7.11564 8.7341 6.90323 9.1215 6.54922 9.47368C 6.19521 9.86108 5.77039 10.178 5.27477 10.3894C 4.77916 10.6007 4.28354 10.7063 3.71712 10.7063C 3.18611 10.7063 2.72589 10.6007 2.23027 10.4246C 1.77006 10.2485 1.34524 9.96674 0.99123 9.61456C 0.743422 9.36803 0.56642 9.1215 0.424815 8.83976C 0.28321 8.55801 0.177006 8.27627 0.141605 7.9593C 0.0708023 7.64234 0.0354001 7.29015 0.0354001 6.93797C 0.0354001 6.58579 2.16072e-06 6.05752 2.16072e-06 5.35316C 2.16072e-06 4.64879 -1.08141e-06 4.12052 0.0354001 3.76834C 0.0708013 3.41616 0.0708023 3.06398 0.141605 2.74702C 0.212407 2.43005 0.28321 2.14831 0.424815 1.86656C 0.56642 1.58482 0.743422 1.33829 0.99123 1.09176C 1.73466 0.352183 2.61969 -1.07477e-06 3.68172 -1.07477e-06C 4.67295 -1.07477e-06 5.48718 0.281744 6.1598 0.880453C 6.83242 1.44394 7.22184 2.21874 7.39884 3.16963L 6.26601 3.16963C 6.1244 2.50049 5.80579 1.97222 5.38098 1.58482C 4.92076 1.19742 4.38975 1.02133 3.71712 1.02133C 3.36311 1.02133 3.0445 1.09176 2.72589 1.23263C 2.40728 1.37351 2.12407 1.5496 1.87626 1.79613C 1.69925 1.97222 1.55765 2.14831 1.48685 2.3244C 1.38065 2.50049 1.30984 2.74701 1.27444 2.99354C 1.23904 3.24007 1.20364 3.55703 1.16824 3.90922C 1.16824 4.2614 1.13284 4.75445 1.13284 5.38838C 1.13284 5.98709 1.13284 6.48014 1.16824 6.83232C 1.16824 7.1845 1.20364 7.50146 1.27444 7.74799C 1.30984 7.99452 1.38065 8.24105 1.48685 8.41714C 1.59305 8.59323 1.73466 8.76932 1.87626 8.98063C 2.08867 9.22715 2.37188 9.40325 2.69049 9.54412C 3.0091 9.68499 3.36311 9.72021 3.68172 9.72021C 4.07113 9.72021 4.46055 9.64978 4.81456 9.47368C 5.16857 9.33281 5.45178 9.08628 5.69959 8.80454C 5.91199 8.55801 6.0536 8.27627 6.1598 7.9593C 6.26601 7.64234 6.30141 7.29016 6.30141 6.90276L 6.30141 6.09274L 3.68172 6.09274L 3.68172 5.10663L 7.39884 5.10663L 7.39884 6.76188C 7.46965 7.36059 7.39885 7.88887 7.25724 8.31148Z"/>
<path id="path7_fill" d="M 6.089 10.5302L 3.68172 5.84621L 1.13284 5.84621L 1.13284 10.5302L -1.08036e-06 10.5302L -1.08036e-06 -2.14955e-06L 4.07113 -2.14955e-06C 4.99156 -2.14955e-06 5.77039 0.281747 6.33681 0.774801C 6.90323 1.30307 7.22184 2.00743 7.22184 2.92311C 7.22184 3.66269 7.00943 4.29661 6.58461 4.78967C 6.1598 5.28272 5.59339 5.59968 4.92076 5.74056L 7.43425 10.5302L 6.089 10.5302ZM 5.48718 1.47916C 5.09777 1.12698 4.60215 0.986107 3.96493 0.986107L 1.13284 0.986107L 1.13284 4.8601L 3.96493 4.8601C 4.60215 4.8601 5.09777 4.68402 5.48718 4.36705C 5.87659 4.05009 6.0536 3.55703 6.0536 2.92311C 6.0536 2.28918 5.87659 1.83135 5.48718 1.47916Z"/>
<path id="path8_fill" d="M 7.32804 6.93798C 7.32804 7.29016 7.29264 7.64234 7.22184 7.9593C 7.15104 8.27626 7.08023 8.55801 6.93863 8.83976C 6.79702 9.1215 6.62001 9.36803 6.37221 9.61455C 5.62878 10.3541 4.74376 10.7063 3.68173 10.7063C 2.61969 10.7063 1.69926 10.3541 0.991235 9.61455C 0.743427 9.36803 0.566419 9.1215 0.424814 8.83976C 0.283209 8.55801 0.17701 8.27626 0.141609 7.9593C 0.0708066 7.64234 0.035399 7.29016 0.035399 6.93798C 0.035399 6.5858 -4.32143e-06 6.05752 -4.32143e-06 5.35316C -4.32143e-06 4.6488 -2.16019e-06 4.12052 0.035399 3.76834C 0.0708002 3.41616 0.0708066 3.06398 0.141609 2.74701C 0.212411 2.43005 0.283209 2.14831 0.424814 1.86656C 0.566419 1.58481 0.743427 1.33829 0.991235 1.09176C 1.73466 0.352181 2.61969 2.14955e-06 3.68173 2.14955e-06C 4.74376 2.14955e-06 5.66418 0.352181 6.37221 1.09176C 6.62001 1.33829 6.79702 1.58481 6.93863 1.86656C 7.08023 2.14831 7.18644 2.43005 7.22184 2.74701C 7.25724 3.06398 7.32804 3.41616 7.32804 3.76834C 7.32804 4.12052 7.36344 4.6488 7.36344 5.35316C 7.36344 6.05752 7.36344 6.5858 7.32804 6.93798ZM 6.2306 3.90921C 6.2306 3.55703 6.19521 3.24007 6.1244 2.99354C 6.089 2.74702 5.9828 2.50049 5.91199 2.3244C 5.80579 2.14831 5.66418 1.937 5.52258 1.76091C 5.31017 1.51438 5.02697 1.33829 4.70836 1.19742C 4.38975 1.05654 4.03573 0.986106 3.71712 0.986106C 3.36311 0.986106 3.0445 1.05654 2.72589 1.19742C 2.40728 1.33829 2.12407 1.51438 1.87626 1.76091C 1.69926 1.937 1.55765 2.11309 1.48685 2.28918C 1.38065 2.46527 1.30984 2.7118 1.27444 2.95832C 1.23904 3.20485 1.20364 3.52182 1.16824 3.874C 1.16824 4.22618 1.13284 4.71923 1.13284 5.35316C 1.13284 5.95187 1.13284 6.44492 1.16824 6.7971C 1.16824 7.14928 1.20364 7.46625 1.27444 7.71278C 1.30984 7.9593 1.38065 8.20583 1.48685 8.38192C 1.59305 8.55801 1.73466 8.7341 1.87626 8.94541C 2.12407 9.19194 2.40728 9.36803 2.72589 9.5089C 3.0445 9.64978 3.36311 9.72021 3.71712 9.72021C 4.07113 9.72021 4.38975 9.64978 4.70836 9.5089C 5.02697 9.36803 5.31017 9.19194 5.52258 8.94541C 5.69959 8.76932 5.84119 8.59323 5.91199 8.41714C 6.0182 8.24105 6.089 7.99452 6.1244 7.748C 6.1598 7.50147 6.1952 7.1845 6.2306 6.83232C 6.2306 6.48014 6.26601 5.98708 6.26601 5.38837C 6.23061 4.75445 6.2306 4.26139 6.2306 3.90921Z"/>
<path id="path9_fill" d="M 7.15103 8.48757C 6.97403 8.91019 6.72623 9.29759 6.37221 9.61455C 6.0536 9.93152 5.62878 10.178 5.20397 10.3541C 4.74375 10.5302 4.24814 10.6007 3.71713 10.6007C 3.18611 10.6007 2.69049 10.5302 2.23027 10.3541C 1.77006 10.178 1.38065 9.93152 1.06204 9.61455C 0.743429 9.29759 0.460215 8.91019 0.283209 8.48757C 0.106204 8.06496 4.32143e-06 7.5719 4.32143e-06 7.04363L 4.32143e-06 -2.14955e-06L 1.13284 -2.14955e-06L 1.13284 6.97319C 1.13284 7.78321 1.38064 8.41714 1.84086 8.91019C 2.30107 9.40324 2.9383 9.64977 3.68172 9.64977C 4.46055 9.64977 5.06236 9.40324 5.55798 8.91019C 6.0182 8.41714 6.266 7.78321 6.266 6.97319L 6.266 -2.14955e-06L 7.39885 -2.14955e-06L 7.39885 7.04363C 7.43425 7.5719 7.32804 8.02974 7.15103 8.48757Z"/>
<path id="path10_fill" d="M 6.3014 5.35316C 5.69958 5.91665 4.92076 6.19839 3.92953 6.19839L 1.13284 6.19839L 1.13284 10.5302L 0 10.5302L 0 1.07477e-06L 3.92953 1.07477e-06C 4.88536 1.07477e-06 5.69958 0.281744 6.3014 0.845235C 6.90322 1.40872 7.22184 2.14831 7.22184 3.0992C 7.22184 4.05009 6.90322 4.78967 6.3014 5.35316ZM 5.45178 1.5496C 5.06236 1.19742 4.49594 1.02133 3.82332 1.02133L 1.13284 1.02133L 1.13284 5.21229L 3.82332 5.21229C 4.49594 5.21229 5.06236 5.0362 5.45178 4.6488C 5.84119 4.29661 6.0536 3.76834 6.0536 3.0992C 6.089 2.43005 5.87659 1.90178 5.45178 1.5496Z"/>
</defs>
</svg>
